<?xml version="1.0" encoding="utf-8"?>
<!-- Generator: Adobe Illustrator 28.3.0, SVG Export Plug-In . SVG Version: 6.00 Build 0)  -->
<svg version="1.1" id="Layer_1" xmlns="http://www.w3.org/2000/svg" xmlns:xlink="http://www.w3.org/1999/xlink" x="0px" y="0px"
	 viewBox="0 0 1200 1200" style="enable-background:new 0 0 1200 1200;" xml:space="preserve">
<style type="text/css">
	.st0{stroke:#000000;stroke-width:8.5039;stroke-miterlimit:10;}
</style>
<g>
	<path class="st0" d="M684.5,720.6c-10.4-4.6-18.5,10.8-22.9,17.3c-4.6,6.8-9.9,12.2-13.3,19.9c-3.6,8.3-8.3,15.7-10,24.7
		c-0.2,1.1-0.1,2,0.1,2.8c-0.2,0.4-0.4,0.7-0.6,1.1c-1.6-3.2-3.6-6.2-5.4-9c-4.2-6.2-10.5-13.8-18.7-13.4c-1.4,0.1-2.7,0.8-3.6,1.9
		c-3.4-1.7-7.9,0.2-8.4,4.3c-0.7,5.6-0.5,9.7,2.8,14.4c2.7,3.8,4.6,8.8,9.1,10.8c2.4,1.1,4.5,0.3,5.9-1.1c3.7,4.3,8.1,7.9,14.6,9.4
		c2.3,0.5,5-1,6.1-3.2c1.5-0.8,3-2,4.6-3.8c3.2-3.7,5.3-8.6,7.2-13.5c2.4-2.6,4.6-5.4,6.7-8.2c2.7-3.7,4.3-8.2,6.7-12
		c3.9,0.2,6.1-2.8,6.1-5.7C682.8,747.5,697.2,726.3,684.5,720.6z"/>
	<path class="st0" d="M906.7,238.3c0-0.3,0-0.5,0-0.8c0.2-2.2,0.5-4.5,0.8-6.7c0.3-2-0.4-3.5-1.5-4.6c-0.1-1.9-0.2-3.9-0.2-5.8
		c-0.2-8.6-0.6-17.2-2-25.8c-0.3-1.7-0.6-3.4-1-5.1c1.5-0.8,2.6-2.3,3-4.2c0.2-1,0.4-2,0.5-2.9c0.5-3.3-1.8-6.1-5-6.7
		c-1.4-0.3-2.7-0.6-4.1-1c-2.6-4.6-6.1-8.5-10.7-11.3c-1.7-1-3.5-1.8-5.3-2.4c-3-3.1-6.6-4.7-11.4-5.4c-3.9-0.6-7.8-3.1-11.8-4.2
		c-6-1.5-12-2.7-18.1-3.3c-5.5-0.6-10.9,0.8-16.2,2.6c-4.9-0.5-9.9-0.6-14.9,0c-13.2,1.4-23.8,10.8-29.2,22.6
		c-1.5,3.2-2.2,6.4-2.5,9.6c-4.3,7.8-9,16.5-11.2,25c-2.5,9.6-2.8,19.5-3.7,29.3c-1.1,11.5-3.4,23.1-5.1,34.5
		c-1.6,10.3-2.7,20.2-2.8,30.6c0,0.7-0.1,1.5-0.1,2.2c-1.6,5.7-3.2,11.4-4.6,17.1c-0.1,0.3-0.2,0.7-0.2,1
		c-5.5-2.7-12.4-2.9-19.5-2.1c-4.2-4.9-11.6-4.6-18-3.2c-8.9,1.9-16.9,2.4-25.6,1.1c-0.3-1.6-1.4-3.1-3.2-3.8
		c-12.2-4.7-25.8-4.7-37.1,0.1c-0.2,0-0.4,0-0.7-0.1c-1.4-0.2-2.5,0.1-3.5,0.6c0.3-1.4,0.6-2.8,0.8-4.2c0.5-3.1-1.7-6-4.8-6.5
		c-14.8-2.3-28.8-3.8-43.3,0.8c-6.5,2.1-13.9,4.2-19.1,8.5c-4.4,1.7-8.6,3.2-13.3,4c-4,0.7-7.9,1.4-11.8,2.1
		c-7.4-4.3-19.6-1.9-27.1-0.6c-6.6,1.1-14.5,1.4-21.4,3.2c-3.7,0.1-6.4,1.5-8.6,3.6c-3.5,2.3-6.2,5.6-7.5,10.5
		c-0.1,0.5-0.2,1-0.4,1.5c-1.2-3.8-2.3-7.7-3.4-11.6c-0.4-2.7-1-5.5-1.5-8.2c-0.2-5.9-0.2-11.9-0.6-17.4
		c-0.9-11.5-6.6-21.3-8.8-32.5c-0.1-0.7-0.4-1.3-0.7-1.8c-0.9-6.8-3-13.5-4.8-20c-2.9-10.5-7.3-20.5-11.8-30.4
		c-0.8-1.8-1.7-3.7-2.5-5.5c-0.6-1.7-1.2-3.5-1.6-5.3c2.3-0.3,4.4-1.7,4.6-4.4c2-24.4-2.9-56.6-24.6-71.6c-1.9-1.3-3.9-2.4-5.9-3.3
		c1-5.6-0.6-10.9-7.4-12c-3-0.5-6.1-0.9-9.2-1.2c-10.3-5-25.6-2.5-35.2,0c-8.8,2.3-17.2,5.3-24.8,10.2c-5.2,3.4-10.4,6.6-15.9,9.5
		c-9.9,0.2-19.5,2.6-26.3,9.8c0.1,0.6,0.2,1.1,0.4,1.7c-2.5,0.1-4.8,1.6-5.2,4.7c-0.2,1.6-0.3,3.1-0.4,4.6c-3,0.3-5.8,3.1-5.6,6.6
		c0.1,2.6,0.9,4.5,2.3,6.5c-2.2,1.4-3.4,4.2-2.3,7c1.4,3.5,2.9,6.9,4.4,10.4c-2.2,2.3-1.2,7.2,3,7.3c0.4,0,0.8,0,1.2,0.1
		c1.3,2,2.6,4.1,3.4,6.2c1,2.7,2.6,5.6,4.7,8.1c1.7,3.7,3.5,7.2,4.9,10.2c1.2,2.7,2.5,5.3,3.9,7.9c-1,1.7-1.2,3.9,0.2,6.1
		c1.1,1.6,2,3.3,2.9,4.9c-0.1,0-0.2,0.1-0.3,0.1c-5.2,1.8-3.1,9.9,2.3,8.3c0.6-0.2,1.2-0.3,1.8-0.5c0.1,0.1,0.1,0.3,0.2,0.4
		c1.3,3,2.5,6,4,9c0.1,0.2,0.2,0.5,0.4,0.7c-1.2,1.1-1.9,2.6-1.6,4.5c1,6.4,3.8,12.2,6.2,18.1c3.3,7.9,4.5,16.9,7.4,25
		c3.1,8.7,7.6,16.8,11.1,25.3c1.7,4,3,8.1,4.8,12c0.1,0.2,0.1,0.4,0.2,0.6c-2.4,0.8-4.4,3-3.7,5.8c1.7,7.6,4.7,14.9,7.5,22.2
		c0.2,1.1,0.5,2.2,0.7,3.2c0.9,4.2,2.6,8.1,4.4,11.9c0.1,0.3,0.2,0.5,0.2,0.8c0.5,1.8,1.1,3.5,1.8,5.2c0.1,2.4,0.4,4.7,1,7
		c0.4,4,1.4,7.8,2.1,12c1.5,9.1,3.9,18.1,5.8,27.1c2.6,12.2,5.5,24.2,9.1,36.1c1.4,5.1,3,10.1,4.8,15.1c0.1,0.3,0.1,0.6,0.2,0.9
		c-2.2,0.8-3.7,2.8-2.9,5.7c2.3,9,4.3,17.8,6.2,26.8c-1.1,4.5,0.6,9,2,13.4c0.6,2,1.1,4,1.5,6c-3.8,3.2-7.5,6.7-10.8,10.3
		c-5.3,5.6-9.2,12.4-12.7,19.3c-9.8,22.3-19.1,44.9-30,66.7c-0.3,1.5-0.6,3-1,4.4c-1.3,0.8-2.4,2.1-2.7,4c-1.3,8-3.8,17.3-4.7,26.5
		c-2.1,1-3.8,3.1-4.5,6.2c-2.5,12.2,3.8,25,9.4,35.4c1.2,2.3,2.4,4.4,3.7,6.5c-1.1,8-1.6,15.9-0.4,23.9c1.1,7.6,1.2,15.5,3.1,23
		c0.4,1.6,1.5,2.7,2.9,3.2c0.8,3.8,1.7,7.6,2.8,11.4c1.5,5.5,4.6,10.6,6.9,15.8c4.2,9.9,9.1,20.3,18,26.8c3.1,2.3,5.5,5.5,9.1,7.2
		c4.9,2.4,10,3.1,15.4,3.8c1.1,0.1,2,0,2.8-0.3c6.9,2.7,14,5.1,21,6.9c4,1.4,8,2.6,11.9,3.8c3.3,1.4,6.8,2.5,10.4,3.2
		c2.2,0.4,4-0.5,5.3-2c2.5,0.5,5.1,1,7.6,1.6c6.8,1.7,14.6,4.1,21.6,2.5c0,0,0.1,0,0.1,0c6.3,7.7,12.5,15.5,19.5,22.6
		c1.9,7.5,3,15.3,4.2,23c-0.4,4,0.4,8.2,1.4,12.1c-0.5,6.8,0.6,13.6,0.4,20.6c-0.1,4.5-0.1,9-0.1,13.5c-2.7,0-5.3,1.6-5.7,4.9
		c-0.7,6.9,0.2,13.8,1.9,20.5c0.9,3.5,0.3,7.1,0.3,10.7c0,5.5,1,11.1,1.9,16.6c1.3,8.1,1.8,16.4,3,24.6c0,0.5,0,1-0.1,1.4
		c-0.1,1-0.2,2.1-0.2,3.2h18.5c-0.4-4.5-0.7-8.9-0.9-13.4c1.6,3.3,4.5,6.3,7.1,8.7c1.8,1.6,3.6,3,5.2,4.7h11.2c-2.2-2.8-4.3-5.7-7-8
		c-2.3-2-4.5-3.9-6.6-6.1c-1.6-1.8-2.3-3.5-2.7-5.4c1.9-1,3.3-3,2.6-5.7c-1.3-5.6-2.6-11.3-3.9-17.1c0.4,0.4,0.9,0.9,1.3,1.4
		c7,7.8,14.2,15.6,24.4,18.9c5.3,1.7,7.2-6.2,2.2-8.1c-8-3.2-13.9-9.6-19.5-15.9c-2.1-2.4-4.2-4.7-6.5-7c0.1-5.3-0.4-10.6-1.2-15.8
		c0.1-0.4,0.2-0.8,0.2-1.2c0-0.9-0.3-1.7-0.8-2.4c-1.4-8.5-3.1-17-3.3-25.5c0.1,0,0.1,0.1,0.1,0.1c4.1,3.6,10.4-0.3,9.8-5.4
		c-0.7-6.1-2.3-12-3.9-17.9c2.7-4,6.1-7.5,10-9.3c4.4-2,1.3-9.3-3.3-7.7c-3.8,1.3-6.9,3.9-9.5,6.9c-0.1-0.4-0.2-0.8-0.3-1.2
		c-1.2-5.3-2.2-10.6-3.4-15.7c0.2-0.5,0.4-0.9,0.6-1.4c2.8-6.5,5.9-12.3,10.7-17.6c3.6-4-2-9.7-5.9-5.9c-3.8,3.7-6.6,8-9,12.5
		c-0.5-1.2-1-2.5-1.5-3.7c-1.5-3.3-5.3-4.4-8.2-3.2c0.1-3.2,0.4-6.3,1.1-9.4c1.2-5.5,3.3-10.7,4.6-16.1c1.2-5.2-6.5-7.4-8-2.2
		c-1.7,5.9-4,11.6-5.3,17.6c-0.1,0.4-0.2,0.9-0.2,1.3c-1.5-3.1-3.1-6.2-4.7-9.3c-2.4-4.5-8-4.2-10.6-1.4c-0.3-0.1-0.5-0.3-0.8-0.4
		c0-5.6,0.1-11.2-0.1-16.7c-0.2-5.4-8.2-5.4-8.4,0c-0.1,3.5-0.2,7-0.2,10.5c-3.3-4.3-7.8-7.9-12.4-11.1c-1.8-1.3-3.7-1.5-5.3-1
		c-0.1-1-0.1-2-0.2-2.9c-0.4-6.1-0.9-12.3-4.1-17.6c-2.8-4.7-9.6-0.6-7.3,4.2c3.5,7,2.3,16,3.5,23.6c0.1,0.9,0.3,1.8,0.6,2.8
		c-4.5-0.6-8.9-1.3-13.4-1.9c-3.3-5.5-5.2-11.5-6.9-17.7c-1.5-5.3-9.4-3.1-8.2,2.3c1.1,4.8,2.5,9.4,4.5,13.9
		c-2.1-0.3-4.3-0.6-6.5-0.9c-10.5-2.8-18.5-9.1-27.3-15.5c-2.4-1.7-5.5-1.3-7.6,0.2c-1.7-1.8-3.3-3.8-4.7-5.8c0.4-0.4,0.7-0.9,1-1.3
		c2.9-5.3,2.2-10.9,0.3-16.5c3.9,0.2,7.8-4.5,5.9-8.3c-4.4-8.9-10.9-15.9-17-23.5c-0.6-0.7-1.1-1.4-1.7-2.1
		c-0.1-0.4-0.3-0.7-0.4-1.1c-0.1-0.4-0.1-0.8-0.2-1.1c0.1-0.8,0-1.5-0.3-2.3c0-0.1-0.1-0.2-0.1-0.4c-1.3-9-2.1-18-2.7-27.2
		c-0.6-9.4-0.8-20.5-2.7-30.9c1.8-13.3,2.4-26.6,3.6-39.9c1.4-0.7,2.5-2,2.8-3.9c1.5-9,3-18.1,4.4-27.2c1.1-7.4,5.6-13.3,8.3-20
		c6-7.8,10.9-16.6,16.1-24.8c1.1-1.7,2.2-3.3,3.3-4.9c0.8-0.1,1.6-0.5,2.5-1.1c0.2-0.2,0.5-0.3,0.7-0.5c-0.8,1.1-1.5,2.3-2.2,3.5
		c-3.1,5.4,4.5,10.7,9.1,7.3c3.8-2.8,7.6-5.6,11.4-8.4c5.5-4.1,12.8-4.4,18.2-8.2c12.4-8.7,26.8-13.8,39.3-22.5
		c9-6.3,18.3-12.4,27.3-18.8c1.3,6.1,3.2,12.1,5.6,17.9c-0.3,6.1,0,12.5,6.4,13.2c0.6,0.1,1.3,0.1,1.9,0.2c1.3,0.5,2.8,0.5,4.1,0
		c7.4-0.4,13.8-2.9,21-5.8c10.8-4.3,21.8-8.3,32.3-13.4c9.1-4.4,15.1-11.2,25.8-10.4c4.8,0.3,9.4-0.8,14.2-1
		c3.8-0.2,7.7-0.8,11.2-2.3c-0.5,9.5,2.7,18.2,3.7,27.6c0.7,6.3,1.9,11.4,5.3,15.7c-0.1,1.8-0.2,3.5-0.3,5.2c-0.8,0.3-1.6,0.7-2.5,1
		c-1.5-2.3-4.7-3.6-7.4-2.6c-6.6,2.6-11.5,8-18.3,10.1c-0.5,0.1-1,0.3-1.4,0.4c0.6-2,0.9-4.2,0.9-6.7c-0.1-2.8-2.6-4.5-5-5.1
		c-17.6-4.9-34.4,8.9-47.1,19.1c-7.1,5.7-14.1,11.4-21,17.3c-2.9-3.8-9.3-1.8-10,2.9c-0.2,1.1-0.3,2.2-0.4,3.2
		c-1.6-0.4-3.3-0.1-4.6,0.9c-1.6,1.3-3,2.6-4.2,3.9c-2.1-1-4.6-0.7-6.6,1.6c-7.8,9.5-15.2,19.4-22.9,29.1c-0.2,0.2-0.4,0.5-0.6,0.8
		c0.8-5,1.4-10.1,2.1-15c0.7-4.7-5.3-9.2-9.3-5.6c-23.4,21.2-20.8,58.9-3.6,83.2c2.2,3.1,5.8,2.9,8.1,1.1c0.5,0.5,1.1,1,1.7,1.5
		c1.8,1.4,3.8,1.6,5.7,0.9c1,0.4,2,0.8,3.1,1.1c2.7,0.7,4.9-0.9,5.9-3.1c3,1.1,6.1,2.1,9.2,2.7c4,0.7,7.2-2.9,6.9-6.7
		c-0.5-5.6-7.1-10.3-11-13.6c-1-0.9-2.1-1.8-3.1-2.6c-1.9-3.7-4.5-7.1-7.6-10c-1.9-4.6-4.2-9-6.3-12.5c0-0.1,0-0.1,0.1-0.2
		c7.9-7.6,17.5-15.4,24.1-24.8c4.3-0.6,8.1-2.3,11.7-4.6c0.4,1.2,0.8,2.3,1.2,3.5c1.3,7.8,4,15.3,8.6,22c2.6,3.9,8.4,2.6,10-1.3
		c2.8,0.2,6.2,1.7,8.2,2.2c4.1,1.1,8.1,1.9,12.4,2.3c9.4,0.9,17.8-1.4,24.6-8.1c2.7-2.6,1-7.7-2.2-9c-0.4-0.2-0.8-0.3-1.1-0.4
		c1.2-0.5,2.3-1.1,3.5-1.7c5.2-2.6,10.8-4.8,16.2-7c1.5-0.6,3.9,0.2,5.3,0.4c2.6,0.4,4.3-1,6.2-2.6c2.7-2.3,6-4.8,9.7-7.2
		c0.6,3.3,1.6,6.5,3.1,9.6c2.4,4.9,8.3,4.7,11,0.2c0.3-0.6,0.6-1.2,0.9-1.8c7.1,2.5,14.3,1.9,21.4,0.5c4-0.4,8.1-1.4,11.5-2.3
		c1.6-0.4,3.2-0.8,4.8-1.3c0.7-0.1,1.3-0.2,2-0.3c0.7,0,1.3-0.1,2-0.1c0.8,0.9,2,1.5,3.5,1.7c9.5,0.8,19.1-2.7,28-5.6
		c9.9-3.2,15.2-15.9,17.4-25c2.1-8.5,1.5-17.7,0.5-26.6c1.2-4.2,1.3-8.7,1.5-13.1c0.1-3.9,0.6-7.7,1.1-11.5c0.8-2.8,1.5-5.6,2.2-8.6
		c0.3-1.5,0.6-3.1,1-4.6c1.8,0,3.6-0.7,4.7-2.3c3,0.8,6.6-0.9,7.3-4.6c3.1-18.1,8.7-35.5,11.2-53.8c1-7.5,1.5-15.1,1.3-22.7
		c-0.2-7.9-1.1-16.2-0.2-24.1c0.1-0.7,0-1.4-0.1-2c0.7-7.7,1-15.5,1.2-23.2c1.9-8.6,4.2-17.9,1.3-26.2c0.7-7.8,1.8-15.5,2.7-23.3
		c0.6-5.7,1.9-15.9,0.7-24.6c1.5-0.5,2.9-1.8,3.5-3.2c3.5-8.9,4.5-18.3,5.3-27.8c0.3-3.9,0.8-7.7,1.2-11.6c4.6,0.1,8.9,0.5,12.7,3.3
		c4,3,8.1-3.2,5.1-6.6c-4.1-4.6-11.1-5.3-17.1-5.4c0.1-2.3,0.2-4.5,0.1-6.8c0-0.2,0-0.3,0-0.5c0,0,0.1,0,0.1,0c0.7,0,1.3,0,2-0.1
		c1.2-0.1,2.2-0.4,3-1.3c0.8-0.8,1.3-1.9,1.3-3s-0.5-2.2-1.3-3c-0.8-0.8-1.9-1.2-3-1.3c-0.7,0-1.3-0.1-2-0.1c-0.3,0-0.5,0-0.8,0.1
		c-0.2-1.7-0.4-3.5-0.6-5.2c-0.2-2-0.2-3.9-0.1-5.8c1.5,0.4,3,0.8,4.3,1.3c4.7,1.5,7.1-5.2,3.2-7.7c-1.7-1.1-3.8-1.7-5.8-2.3
		c-0.3-0.1-0.6-0.2-0.9-0.3c0,0,0-0.1,0-0.1c0.5-5.1,0.6-10.3-0.5-15.2c0.7-4.5,1.3-9,2-13.5c0.8-5-1.3-9.4-0.8-14.3
		c0.2-1.7-0.3-3-1-4.1c-0.1-2.1-0.1-4.2,0-6.3c2.7-5.5,5.9-10.9,10.8-14.1c6.7-4.5,15.4-6.1,22.8-8.9c1.7-0.6,3.2-1.2,4.8-1.6
		c9.7,1.3,19.3,4.1,28.8,5.9c0.9,0.2,1.7,0.4,2.6,0.6c-3.8,6.1,4.9,13.2,8.9,7.1c0.5-0.8,1.1-1.5,1.8-2.1c2.7,1.6,5.4,3.2,7.9,4.5
		c0.2,0.1,0.4,0.2,0.6,0.3c0.7,3,1.2,5.8,1.5,6.9c2.6,9.6,4.5,18.3,5.2,28.3c1.1,16.8,5.1,33,8.5,49.4c-1,0.8-1.8,2-2,3.7
		c-2.1,13.9-4.9,27.9-6.2,42c-0.4,4.9-0.3,9.7,0.8,14.2c-0.6,3.6-1.1,7.2-1.7,10.8c-0.1,0.4-0.2,0.8-0.3,1.3
		c-0.2,1.2-0.3,2.5-0.5,3.7c-0.2,1.3-0.4,2.7-0.6,4c-0.8,5.3-1.6,10.6-2.5,15.9c0,0,0,0,0,0l-0.1,0.5c-0.4,2.9-0.9,5.8-1.3,8.6
		c-2.9-0.5-6.2,0.9-6.7,4.7c-1.8,11.6-3.4,23.2-4,34.9c-0.5,10.6,0.6,21,1.4,31.5c-2.4,0.2-4.7,1.7-5.1,4.7
		c-2.2,14.1-5.4,28.5-4.5,42.6c0,0.1,0,0.2,0,0.3c-0.8,10.9-2,22.1-2.2,33.2c-1.2,0.8-2.1,2.1-2.4,3.9c-2.1,13.5-5,27.2-6,40.9
		c-2.4,5.2-4.6,10.6-6.8,15.9c-1.7,3.9,2.8,7.4,5.5,5.8c-0.6,5.8-1.3,11.5-2,17.3c-1.4-0.3-3-0.1-4.3,1.1c-1.1,1-2.1,2.1-3,3.2
		c0-1.7-0.2-3.3-0.4-4.8c-0.6-5.1-1.6-10.2-2.1-15.3c-0.2-2.1-0.7-7.1,0.8-7.4c5.1-1.2,2.9-8.8-2.1-7.8c-9.3,2-7.2,14.8-6.3,21.5
		c0.6,4.5,5.1,21.1-1.8,22.3c-2.6,0.4-3.4,2.6-2.9,4.6c-1.7,0.7-2.8,2.3-1.9,4.6c2.8,7.5,5,15.1,6.7,22.9c0.3,1.5,0.6,2.9,0.7,4.4
		c-1.9,10.1-5.1,24.1-2.4,35.2c-0.3,1.9-0.7,3.9-1.1,5.8c-0.6-5.8-1.5-11.6-1.8-17.5c-0.3-5.3-8.2-5.4-8.3,0
		c-0.1,7.2,1.3,14.3,1.6,21.5c-1.3-5.5-3-10.9-5.8-15.7c-2.4-4.1-9.5-1.3-7.8,3.3c5.7,14.9,9,30.9,9.8,46.9c0.2,3.9,4.5,5.1,6.9,3.4
		c0.4,1.8,0.9,3.5,1.6,5.1c-0.1,0.4-0.3,0.9-0.4,1.3c-1.1,3.6-2.2,7.1-3.7,10.6c-1.6-6.1-0.3-12.4-5.1-17.3
		c-3.9-4.1-9.5,1.9-6.1,6.1c1.3,1.6,1.4,3.7,1.5,5.7c0.2,2.9,0.5,5.7,1.3,8.4c1,3.3,4.4,3.7,6.7,2.4c-0.9,3.8-1.4,7.7-2.4,11.4
		c-0.5,1.8-1,3.6-1.6,5.4c-0.4-1.9-0.8-3.8-1.3-5.7c-1.3-5.4-4.4-22.4-13.3-18.2c-3.5,1.6-2.2,5.8,0.5,7.2c0,0,0,0.1,0.1,0.1
		c0.3,0.5,0.6,1.1,0.9,1.7c0.7,1.5,1.1,3.1,1.6,4.6c1.2,3.9,2.2,7.9,3,12c0.6,2.9,1.3,5.9,1.6,8.9c0.6,5.4-1.5,11-1.8,16.5
		c-0.6,3.1-1.3,6.1-2,9.2c-0.7,0-1.5,0-2.3,0.3c-7.8,2.2-14.8,5.9-21.4,10.4c-0.8-4.5-8-4.2-8.1,0.8c0,0.4,0,0.8,0,1.2
		c0,0.2,0,0.4,0,0.6c0,0,0,0,0,0.1c0,0,0,0.1,0,0.1c-0.2,1.4-0.8,2.7-1.4,3.9c-0.2,0.4-0.3,0.8-0.4,1.2
		c-6.1,5.3-11.8,11.2-17.2,17.1c-0.7,0.8-1.4,1.5-2.1,2.3c-2.4-1.8-6.2-1.7-8.5,0.7c-0.7,0.7-1.3,1.4-2,2.2c0-0.1,0-0.1,0.1-0.2
		c1.9-8.2,2.3-16.7,2.1-25.2c-0.2-5.6-8.4-5.5-8.6,0c-0.3,7.7-0.2,15.3-1.9,22.8c-0.9,4.1,3.4,6.4,6.3,5.2
		c-3.7,4.7-6.7,9.9-9.4,15.3l0,0c-0.3-0.2-0.6-0.3-1-0.5c0.5-3.9,0.7-7.9,0.7-11.9c0.1-6.9-3.8-13.7-6.3-20
		c-1.9-4.9-9.6-3.1-8.1,2.2c0.8,2.7,1.8,5.4,2.8,8c1,2.4,2.8,5.6,2.8,8.3c0,6-0.3,11.9-1.5,17.8c0,0,0,0,0,0c-3.4,0.5-5,3.6-4.8,6.5
		c-0.4-1.4-0.9-2.7-1.3-4.1c-1.3-3.9-3.2-6.6-5.2-10.1c-2.2-3.9-3.2-8.5-4.8-12.6c-1.9-4.9-9.5-3.1-8.1,2.2c1,3.8,2.2,7.5,3.6,11.2
		c1.4,3.6,4.1,6.5,5.4,10c3.5,9.4,5.7,19.3,8.8,28.8c0,0,0,0.1,0,0.1c-0.5,1.4-1,2.8-1.5,4.2c-1.6-4.4-3.5-8.7-5.5-13
		c-4.7-10.5-10.2-20.8-17.9-29.5c-3.1-3.5-9.4,1.3-6.6,5.1c6.1,8.1,11.1,16.5,15.4,25.6c2.7,5.7,5.6,11.7,7.6,17.9
		c-2.3,0-4.7,1.3-5.6,3.5c-3.1,7.2-2.7,15-1.8,22.7c0.5,4,1.3,8,2,12c0.8,4.1-1,9.5-1.4,13.7c-0.4,4.5-0.6,9-0.7,13.5
		c-1,4.2-2.1,8.5-2.1,12.9c0,1.6,0.7,2.7,1.7,3.3c0,0.2,0,0.4,0,0.5c-0.4,7.4-0.3,14.8,0,22.1H719c0.7-8.6,1.6-17.1,2.8-25.7
		c4.7-31.5,4.4-63.6,8.4-95.3c0-0.4,0-0.7,0-1c0.8-1.3,1.6-2.7,2.4-4c3.4-5.2,7.2-7.8,12.6-10.3c4.1-1.9,8-4.7,9.5-9
		c3.1-2.3,6-4.8,8.9-7.7c0.1-0.1,0.2-0.2,0.3-0.3c1.4-0.8,2.9-1.6,4.3-2.4c17.1-1.6,32.7-9.6,49.4-12.7c6-1.1,6.8-10.4,0.2-11.2
		c-0.5-0.1-0.9-0.1-1.4-0.1c2.6-1.5,5.1-3.1,7.1-5.5c1.9-2.3,1.4-6-0.7-7.9c0.4-0.6,0.9-1.3,1.3-1.9c1.8-2.8,3.5-5.4,5.1-8
		c2.8,0.8,6.4-0.5,7.4-4.2c4.3-15.3,8.3-30.6,11.7-46c0.6-0.5,1.1-1.1,1.5-1.8c3.4-5.7,3.4-12.7,3.7-19.1c0.2-4.8,0.8-9.6,1.5-14.4
		c0.3-1.8,0.6-3.6,0.9-5.4c0.2-1.3,0.4-2.7,0.6-4c0.1-0.9,0.3-1.9,0.4-2.8l3.6-23.9c0.4-2.1,0.8-4.2,1.3-6.2
		c1.8-8.2,5.5-18.1,3.7-26.7l0.3-2.1c5.8-38.3,11.7-76.6,17.5-114.9c0.8-5.1-4.6-7.4-8.2-5.7c0.1-0.6,0.2-1.2,0.3-1.9l0.3,0.1
		c3,0.5,5.9-1.7,6.4-4.7c3.8-25.1,7.7-50.2,11.5-75.3c1.9-12.4,3.7-24.7,5.6-37.1c1.1-7.3,0.9-14.7,1.1-22c0.2-2.5,0.4-5,0.4-7.5
		c0.1-1,0.2-1.9,0.3-2.9c0.1-0.8,0-1.5-0.2-2.2c0-3.8-0.1-7.6-0.2-11.3c1.5-8.8,3-17.7,3.7-26.6c0.1-1.6,0.2-3.1,0.2-4.7
		c0.1-0.8,0.1-1.5,0-2.2c-0.1-6.4-0.7-12.9-0.8-19.3c1-4.9,1.6-9.9,2-14.9c0.9-9.9,2.1-19.4,1-29.3c-0.3-3-0.8-6-1.2-9
		c0.7-9,1.4-18.1,2.6-27.1C908.7,240.9,907.9,239.3,906.7,238.3z M427.5,142.4c0,0.1-0.1,0.2-0.1,0.4c-1.2,9.5,2.4,16.5,4.3,25.5
		c0.2,1.1,0.4,2.2,0.6,3.4c-2.3-5-4.6-10-6.7-15c-2.7-6.2-3.8-12.9-5.2-19.5C423,138.5,425.4,140.2,427.5,142.4z M326.2,148.7
		c3.4-1.2,6.6-2.8,9.7-4.5c1.2,0.1,2.5,0.1,3.7,0.2c-4.6,2-10.4,3.7-13.5,4.9C326.2,149.1,326.2,148.9,326.2,148.7z M388.7,567
		c3.1-5,6.8-9.8,10.6-13.9c0.9-1,1.9-1.9,2.8-2.8c0.3,1,0.7,2.1,1.1,3.1c0.1,0.3,0.3,0.5,0.4,0.8C398.6,558.4,393.4,562.5,388.7,567
		z M448.6,543.6c-0.4,0.2-0.8,0.4-1.1,0.6c0.7-0.7,1.5-1.4,2.2-2.1c0.2,0.2,0.4,0.5,0.6,0.7C449.7,543,449.2,543.3,448.6,543.6z
		 M440.7,512.3c-4.1,3-8.3,7.1-13,9.3c-4.9,2.3-10,4.3-14.8,6.7c0,0,0,0-0.1,0c-0.6-2.8-1.3-5.6-2.1-8.2c-0.2-0.8-0.5-1.6-0.7-2.4
		c4.7,2.7,11.2-3,7.4-8.3c-1.3-1.9-2.6-3.8-3.8-5.8c-5.1-9.3-6.8-20.1-10.2-30.3c-1.1-4.1-2.5-8-3.8-11.8c-0.4-1-0.7-2.1-1-3.1
		c3.2-0.5,6-3.4,4.3-7.3c-1-2.3-2-4.7-2.9-7.1c2.2-1.8,3.3-5.2,1.3-7.8c-3.5-4.8-6.1-10.8-8.5-16.6c0.6-0.9,0.9-2,0.9-3.2
		c0.1-6.8-4.6-12.5-6.1-19c-2-8.8-5.4-17-7.7-25.7c3.1-0.6,5.7-4.1,4.7-7.8c-0.8-3.1-2.3-5.7-4.1-8.3c-2.2-3.4-3.1-7.7-4.6-11.5
		c-1.6-4-3.2-8-4.8-12.1c-0.3-0.9-0.7-1.8-1.1-2.7c-1.4-3.5-2.8-7-4.3-10.5c-0.1-0.2-0.2-0.4-0.3-0.6c-1.4-4.3-3.6-8.1-5.3-12.4
		c-1.3-3.2-2.1-6.4-3.4-9.5c2.8-1.4,4.1-5.3,2.2-8.4c-1.9-3.2-4.2-6.7-6.4-10.3c0.6-1,0.9-2.1,0.8-3.3c3.2-0.4,6.3-0.9,9.5-1.2
		c5.4-0.5,5.5-8.2,0-8.5c-4.3-0.2-8.6,0.5-12.8,1.1c-1.3-2.7-2.7-5.3-4.1-7.9c-0.1-0.3-0.2-0.7-0.3-1c0.6-0.2,1.2-0.4,1.8-0.7
		c0.4-0.2,0.9-0.4,1.3-0.7c0,0,0,0,0.1,0c0.3-0.1,1.1-0.3,0-0.1c2.3-0.3,4.3-1.7,4.3-4.3c0-2.4-2-4.3-4.3-4.3c-1.7,0-3,0.5-4.6,1.2
		c0,0,0,0,0,0c-1.7-3-3.2-6.2-4.7-9.4c1.1-0.5,2.3-1.2,3.4-1.9c4.4-3,0.5-9.9-4.2-7.2c-0.8,0.5-1.6,0.9-2.4,1.2
		c0.1-1.1-0.2-2.4-1.1-3.5c-0.7-1-1.4-2.1-2.1-3.2c-1-1.6-1.8-3.2-2.7-4.9c0.1,0,0.2,0,0.4,0c5.2,0,5.2-8,0-8
		c-1.5,0-2.5,0.7-3.2,1.6c-0.5-1.3-1-2.7-1.5-4c0.6-1.2,0.6-2.7,0-4.4c-0.1-0.3-0.3-0.6-0.4-0.9c1,0,2.1-0.1,3.1-0.1
		c5.4-0.3,5.4-8,0-8.3c-2.3-0.1-4.7-0.2-7-0.2c0,0,0-0.1-0.1-0.1c-0.4-1.3-0.8-2.5-1.3-3.8c0.8-1.9,0.2-4.3-1.7-5.4
		c-0.2-2.7-1-5.2-1.9-7.8c0-0.1-0.1-0.2-0.1-0.3l10,0c5.5,0,5.5-8.5,0-8.5l-12,0c0,0-0.1,0-0.1,0c-0.2-1-0.3-2-0.5-3
		c6.7-2.2,13.3-5,19.7-8.3c7.8-4,19.9-4.9,23-14.8c1.1-3.5-0.4-7.2-4.3-7.8c-0.3-0.1-0.7-0.1-1-0.2c1.4-0.8,2.7-1.6,4.1-2.3
		c0.3-0.2,0.7-0.3,1.1-0.5c5.1-2.4,10.3-4.5,15.6-6.2c2.7-0.9,5.4-1.3,8-1.5c-4.7,0.7-9.9,1.5-13,5.5c-4.2,5.4-2.2,10.4,2.1,14.9
		c4.1,4.3,11.6-2.8,7.6-7.2c-1.9-2.1-1.6-1,1.2-2.1c1.6-0.6,3.4-0.4,5-0.7c6.4-1,12.8-1.5,19.2-1.6c1.4,0,2.8,0.1,4.2,0.2
		c0.7,2.6,1.2,5.3,1.6,7.5c1.1,5.4,1.9,10.8,3.6,16.1c2.8,9.1,8,17.9,12.2,26.4c0.7,1.4,1.4,2.9,2.1,4.3c-0.1,0.6-0.1,1.2,0,1.9
		c2.9,13.4,12.3,23.7,15.2,37c2.9,13.3,7.5,26.2,11.1,39.4c1.9,7,3.3,14.2,4.7,21.4c0.1,0.6,0.2,1.2,0.3,1.7c0,0.2,0.1,0.4,0.2,0.6
		c1.2,6.2,2.5,12.3,4.2,18.4c2.2,8.2,4.8,16.5,7.7,24.7c0.2,1.8,0.5,3.6,0.7,5.5c0.3,2.5,0.6,4.9,0.9,7.4c-0.7,6.9,0.2,13.8,1.3,21
		c1.8,12,2.6,24.1,3.7,36.1c1,11,3.9,21.4,6.1,32.2c1.9,9.6-0.2,17.3,8.1,24c0.2,0.1,0.3,0.2,0.5,0.4c0.1,1,0.2,2,0.6,2.8
		c0.5,2.7,1.2,5.3,1.9,7.9c0.4,4.5,1,8.9,2.1,13.1c0.8,2.9,1.4,5.8,2,8.7c0,0.7-0.1,1.4-0.2,2.1c-1.4,0.1-2.9,0.2-4.4,0.3
		c-6.4,0.3-12.7,1.3-18.8,2.8c-1.9-1-4.2-1-6,0.5c-0.7,0.6-1.4,1.3-2.2,1.9C457.1,502.3,448.5,506.7,440.7,512.3z M479.1,508.1
		c-0.3,0.2-0.6,0.3-0.9,0.5c-2.1,1.3-4,2.7-5.7,4.2c0.7-1.2,1.5-2.4,2.2-3.7C476.1,508.8,477.6,508.4,479.1,508.1z M492.3,517.5
		c-6.3,4.6-12.5,9.1-19.1,13.3c-2.3,1.4-4.6,2.7-7,4c0,0,0-0.1,0-0.1c3.4-3.4,6.9-6.7,10.5-9.8c1.6-1.1,3.2-2.1,4.7-3.3
		c5.1-3.6,10.8-7.7,17.1-8.7C496.5,514.4,494.4,515.9,492.3,517.5z M528.1,487.1c-1.3,0.4-2.4,1.4-3.3,2.7c0,0-0.1,0-0.1,0
		c-2.8-2-7.2-1.6-9,1.7c-1.1,0.2-2.3,0.4-3.4,0.6c0-0.2-0.1-0.3-0.1-0.5c0.6-5.4,0.8-10.8,0.7-16.2c0.7-4.1,1.1-8.2,0.7-12.1
		c0.1-0.5,0-1-0.1-1.6c-0.1-0.2-0.1-0.4-0.2-0.6c-0.2-1.6-0.6-3.1-1.2-4.6c-7.9-31.5-16.4-63.1-17.4-95.7c-0.2-5.5,0-10.9,0.7-16.2
		c1.2-3.9,3-7.5,5.6-9.8c0.9-0.8,5.9,1,7,1.2c4.3,1,8.5,1.2,12.9,1.2c8.4-0.1,17.1-2.7,25.4-4.1c0.8-0.1,1.6-0.3,2.4-0.4
		c0.6,0.1,1.2,0,1.7-0.1c8.4,0.4,16.8-0.5,25.2-1.7c13.1,1.9,26.8,2.8,38.4-4.9c2.8-1.9,2.9-4.6,1.7-6.8c2.6,0.9,4.9,2.2,6.2,3.9
		c1.6,2.1,1.9,5.5,2.3,8c0.2,1.3,0.5,2.5,0.8,3.8c-0.3,0.6-0.5,1.3-0.8,1.9c-5,13.3-2.3,28.6-0.9,42.3c0.5,4.6,1.8,9.1,3.4,13.6
		c0,0.5,0.1,1,0.1,1.5c-2.2,11.9-2.2,23.3-1.3,35.8c0.3,4.3,0.3,8.4,0.4,12.6c-2.8,0.6-5.5,1.7-8.1,3.1
		c-21.9,3.4-48.2,10.1-58.8,30.5c-0.8,1.6-1.2,3.1-1.4,4.6c-3,1.6-6,3.1-9.2,3.9c-1.1,0.1-2.2,0.3-3.3,0.6
		C539.5,485.8,533.8,485.6,528.1,487.1z M628.6,504.1c-5.2,0.8-10.3,0.7-15.3,0.9c-0.6,0.3-1.2,0.6-1.9,0.8
		c-4.4,1.5-8.9,2.4-13.5,3.1c-2.2,0.7-4.4,1.4-6.5,2.2c-2.8,1.8-5.5,3.8-8.5,5.4c-5.8,2.9-11.8,5.3-17.8,7.7
		c-7.4,2.9-15.5,7.5-23.8,9.6c0.3-2.6,0.3-5.4,0.2-8c3.1-0.7,6.2-1.7,9.2-2.8c-7-0.4-10.9-6.1-11.4-11.9c-0.3-1.2-0.4-2.3-0.3-3.5
		c-0.6-1.8-1.3-3.6-2.2-5.2c1.8-0.3,3.5-0.7,5.2-1.1c8.3-8,18.2-11.8,29.5-13.4c12.6-4.7,25.1-9.5,36.6-16.4c-0.3,0-0.6,0-0.9,0
		c-0.7,0.1-1.3,0.2-2,0.3c2.2-1.3,4.4-2.5,6.6-3.8c5.1-1.8,11-3.5,14,1.8c0.6,1.2,1,2.4,1.2,3.7c2.3,3.1,3.2,6.9,1.9,10.4
		c0.9,2.1,2.2,4.1,4,5.7c-0.2,0.7-0.2,1.5-0.1,2.3c0.6,3.2,1.3,6.4,2.2,9.6C634.3,503.7,630.6,503.8,628.6,504.1z M605.6,570.8
		c-1.7,2.4-4.5,4.1-6.9,5.7c-2.3,1.6-4.6,3.1-6.8,4.8c-0.7-0.5-1.5-0.8-2.4-1c-1.8-0.2-3.6-0.3-5.3-0.3
		C590.8,575.1,598,571,605.6,570.8z M634.9,610c0,0.1,0.1,0.2,0.1,0.4c-5.5,3.1-10.7,6.7-15.3,10.6c-3-0.4-5.5-0.4-8.8,0.8
		c-5.4,1.9-11.1,4.5-16.1,7.1c-11.4,6-23.7,10-35.8,13.9c-0.6,0.2-1,0.4-1.5,0.8c-2.7-0.5-5.4-0.8-7.7-0.4c-0.1-0.2-0.2-0.4-0.3-0.6
		c1-6.5,2.1-13.7,2.2-20.8c-3.7-6.5-1.4-17,8.4-18.5c9.1-1.4,17.7-4.8,26.6-7.1c0.7-4.7,3.9-9,9.9-9.9c7-1,13.7-3.7,20.9-3.6
		c9.9,0.1,17,4.4,21.4,13.3C641.3,600.9,639,606.9,634.9,610z M745.7,334.9c0.2,0.3,0.4,0.5,0.6,0.8c-0.1,0.4-0.1,0.8-0.2,1.2
		c-0.2-0.7-0.4-1.4-0.8-2.1C745.4,334.9,745.5,334.9,745.7,334.9z M640.6,335.8c-0.1-1.1-0.3-2.1-0.4-3.2c1.8-2.2,4.1-4.3,6.8-6
		c2.4,0.4,4.9,0.7,7.4,1c0,0,0,0-0.1,0c-3.1,0.7-6.1,1-8.9,2.6C643.2,331.5,641.7,333.5,640.6,335.8z M648,488.8
		c-0.2-1.8-1.9-9.8-2-13.9c2.2,5.2,3.6,11,5.1,16.2c2.4,8.3,4.1,16.8,5.9,25.2c2.7,12.3,5.5,25.7,5.1,38.5
		c-1.6-10.5-4.2-20.8-7.1-31c0.5-0.7,0.9-1.6,0.9-2.7C656.2,509.5,649,500,648,488.8z M704.9,598.4c-4.9,4.2-10.4,7.4-16.2,10
		c-4.4-8.7-21.6-7.5-30.1-6.3c-0.9,0.1-1.7,0.3-2.6,0.4c-0.1-0.2-0.2-0.5-0.3-0.7c-0.3-4.3-0.9-8.6-1.8-12.9c0.5-0.9,0.8-2,0.7-3.3
		c-0.1-1.4-0.4-2.5-0.9-3.5c1.6-1.9,2.8-4.1,3.6-6.8c0.3-1.1,0.6-2.3,0.9-3.4c3.8-1.4,7.7-2.8,11.6-4.1c2-0.6,3.6-2.8,3.8-4.8
		c0.7-5.4,0.8-10.9,0.5-16.4c1.5,0.7,3,1.3,4.6,1.6c6,1.4,9-8.5,3.1-10.4c-0.2-0.1-0.5-0.2-0.8-0.3c1.6-0.3,3.3-0.7,4.8-1
		c5.4-1.3,10.3-0.2,15.8,0.7c2.6,0.4,4.5-0.6,5.6-2.1c0.3,0,0.5,0.1,0.8,0.1c2.6,0.4,5.6,0.6,7.8,1.9c0.5,0.7,1.1,1.2,1.9,1.6
		c0.3,0.3,0.5,0.7,0.7,1.1c0.2,0.4,0.4,0.9,0.6,1.3c0.6,5.6,1.2,11.2,0.5,16.8c-0.3,2.7,0.9,4.6,2.6,5.7c-1,6.3-1.9,12.6-2.9,18.9
		C715.4,588.5,710.1,593.9,704.9,598.4z M723.8,610c-1,1.2-2.4,2.2-4.1,3.2c-0.4-1.6-1.4-3.1-2.9-4c3.2-2.1,7.5-4.8,11.4-6.3
		C727.1,605.4,725.6,607.8,723.8,610z M747.5,454.3c-2.6,11.1-3.8,22.6-5.5,33.8c-1.1,7.4-2.3,14.9-3.4,22.3c-0.8-0.5-1.7-0.9-2.7-1
		c-2.9-0.5-6.1,0.9-6.6,4.7c-0.4,2.2-0.7,4.4-1.1,6.6c-1.2-1-2.8-1.6-4.5-1.3c-3.5,0.6-5.6,2.4-7,5c-4.2-1.2-8.8-1.5-12.9-2.1
		c-3.8-0.6-8-1.8-11.9-1.4c-4.1,0.4-8,1.2-12.1,0.8c-3.9-0.3-6.3,2.5-6.7,5.6c-0.5,0.1-0.9,0.2-1.4,0.4c-1.1-5.9-2.4-11.8-3.6-17.5
		c-3.7-16.8-6.7-36.7-17.3-50.8c-0.4-0.6-0.9-1.1-1.3-1.7c-0.3-4.1-1.5-7.3-3.3-9.8c0.8-7.9,2.2-15.8,3.4-23.7
		c0.7-4.9,3.2-11.9,2.3-16.8c-1-5.9-2-11.9-2.9-17.8c-0.9-6-1.5-11.6-0.6-17.6c0.5-3.2,1.7-6.9,1.3-10.1c-0.2-1.5-2.2-3.9-2.1-4.7
		c0-0.1,0-0.2,0-0.3c0.2-1.2,0.4-2.3,0.6-3.5c0.4-2.3,1.3-11.3,3.3-12.4c3.1-1.7,9.5-2.6,13-2.2c4.5,0.6,9.2,0.5,13.6-0.6
		c3.9-1,9.7,0.8,13.9,0.5c2.5-0.1,4.9-0.4,7.4-0.7c1.6,4.4,9.7,4.5,11.3-1.4c0-0.1,0.1-0.2,0.2-0.3c1.7-0.3,3.4-0.6,5-0.9
		c2.2,2.9,7.3,3.2,9.5,0c0.2,0.1,0.5,0.2,0.7,0.2c2.1,0.4,3.8,2.5,5.3,3.9c2.4,2.2,5.3,3.7,8.5,4.3c3,0.5,5-1.1,5.8-3.2
		c-0.2,4.8,0.5,9.4,3,13c-0.2,9.2-2,18.5-3.4,27.5c-2.2,14.8,1.6,28.2,4.2,42.8C751.7,434.7,750,443.6,747.5,454.3z M714.3,891.5
		c-0.2,0.4-0.3,0.8-0.4,1.3c-1-3.3-1.9-6.7-2.9-10c0.7,1.3,2,2.3,3.9,2.5c0.1,0,0.3,0,0.4,0C715,887.4,714.7,889.5,714.3,891.5z
		 M822,709.2c-0.6,2.6-1.3,5.6-1.8,8.7c-0.4-3.3-1-6.5-1.6-9.6c-0.3-1.5-0.6-3-0.9-4.5c1.3,1.4,3.5,1.8,5.2,1.1
		C822.6,706.3,822.3,707.7,822,709.2z M831,629c-0.5-1.4-1-2.8-1.6-4.2c0.9-0.2,1.6-0.5,2.3-0.9C831.4,625.6,831.2,627.3,831,629z
		 M844.8,707.8c-0.3,0.1-0.6,0.3-0.9,0.4c0.8-5.9,1.8-11.8,2.8-17.6c0.5-1.5,1-3.1,1.3-4.7C846.9,693.2,845.9,700.5,844.8,707.8z
		 M855.5,656.9l-0.6,4.3c-3.6,4.5-4.6,11.5-5.5,16.9c0,0.2,0,0.3-0.1,0.5c0.5-4.3,0.8-8.8,1.5-13.2c0.6-4.2,1.2-8.4,1.8-12.6
		c1.2,0.2,2.5,0.1,3.6-0.4C855.9,653.9,855.7,655.4,855.5,656.9z M880.6,472c-0.3,0.1-0.6,0.2-0.9,0.4c0.4-4.7,0.8-9.4,1-14.1
		c0.7-0.1,1.4-0.3,2.1-0.6C882,462.5,881.3,467.3,880.6,472z"/>
</g>
</svg>
